<svg xmlns="http://www.w3.org/2000/svg" width="571" height="569" viewBox="0 0 571 569"><g transform="translate(-567 -1404)"><g transform="translate(567 1404)" fill="none" stroke="#388175" stroke-width="17"><ellipse cx="285.5" cy="284.5" rx="285.5" ry="284.5" stroke="none"/><ellipse cx="285.5" cy="284.5" rx="277" ry="276" fill="none"/></g><line x2="395" y2="394" transform="translate(668.5 1477.5)" fill="none" stroke="#388175" stroke-width="17"/><line x1="140" y2="156" transform="translate(745.5 1477.5)" fill="none" stroke="#388175" stroke-linecap="round" stroke-width="17"/><line x2="247" transform="translate(747.5 1639.5)" fill="none" stroke="#388175" stroke-linecap="round" stroke-width="17"/><line x2="244" transform="translate(747.5 1847.5)" fill="none" stroke="#388175" stroke-linecap="round" stroke-width="17"/><line y2="50" transform="translate(1012.5 1659.5)" fill="none" stroke="#388175" stroke-linecap="round" stroke-width="17"/><line y2="45" transform="translate(1012.5 1779.5)" fill="none" stroke="#388175" stroke-width="17"/><line y2="190" transform="translate(720.5 1634.5)" fill="none" stroke="#388175" stroke-width="17"/><line y1="156" x2="140" transform="translate(768.5 1483.5)" fill="none" stroke="#388175" stroke-linecap="round" stroke-width="17"/><line x2="100" y2="90" transform="translate(908.5 1483.5)" fill="none" stroke="#388175" stroke-width="17"/><line x1="56" y2="66" transform="translate(952.5 1573.5)" fill="none" stroke="#388175" stroke-linecap="round" stroke-width="17"/><line y1="10" transform="translate(720.5 1624.5)" fill="none" stroke="#388175" stroke-width="17"/><line y2="81" transform="translate(1012.5 1704.5)" fill="none" stroke="#388175" stroke-width="17"/><line x2="35" transform="translate(733.5 1611.5)" fill="none" stroke="#388175" stroke-width="17"/><line x2="65" y2="57" transform="translate(843.5 1582.5)" fill="none" stroke="#388175" stroke-linecap="round" stroke-width="17"/><path d="M1624.5,451.5a31.557,31.557,0,0,0-5.845.654,12.262,12.262,0,0,0-4.305,2.943c-.311.364-.229.246-.986,1.19a12.4,12.4,0,0,0-2.346,5.013,16.344,16.344,0,0,0-.52,3.969v.662" transform="translate(-890 1160)" fill="none" stroke="#388175" stroke-width="17"/><path d="M1610.4,472.7c2.561,3.794,3.755,4.6,5.857,5.779,3.636,2.049,5.709,1.878,5.709,1.878h15.514" transform="translate(-890 1159)" fill="none" stroke="#388175" stroke-width="17"/><path d="M1775.622,350.372c4.2,3.9,15.779,11.278,26.662,10.087,12.358-1.352,23.133-12.684,23.133-12.684" transform="translate(-890 1160)" fill="none" stroke="#388175" stroke-width="17"/><path d="M1867.774,450.208c4.141-.133,13.375,1.971,17.379,8.453,1.928,3.121,2.706,7.992,3.071,12.007a44.821,44.821,0,0,1,0,8.57" transform="translate(-889.917 1159.851)" fill="none" stroke="#388175" stroke-linecap="round" stroke-width="17"/><path d="M1884.246,479.388a34.758,34.758,0,0,1,18.3,20.352" transform="translate(-890 1160)" fill="none" stroke="#388175" stroke-width="17"/><path d="M1610.4,664.5c2.135,20.611,25.488,23,25.488,23" transform="translate(-889.901 1160)" fill="none" stroke="#388175" stroke-linecap="round" stroke-width="17"/><path d="M1883.014,687.1c17.008-5.226,19.292-22.051,19.292-22.051" transform="translate(-890 1160)" fill="none" stroke="#388175" stroke-linecap="round" stroke-width="17"/><path d="M1869.25,394.039c-4.544,6.373-7.5,16.3-6.828,23.36,1.168,12.251,10.026,21.573,10.026,21.573" transform="translate(-890 1160)" fill="none" stroke="#388175" stroke-linecap="round" stroke-width="17"/><path d="M1764.85,429.5s-9.9-5.146-21.559,3.433-5.99,24.13-5.99,24.13,4.245,5.3,5.99,7.5,12.874,2.23,12.874,2.23,3.348-1.836,7.755-4.46a66.648,66.648,0,0,0,11.349-8.721c5.4-5.022,16.282-2.93,16.282-2.93s6.365,3.668,7.313,8.247,0,15.639,0,15.639" transform="translate(-890 1155)" fill="none" stroke="#388175" stroke-linecap="round" stroke-linejoin="round" stroke-width="17"/><path d="M763.962,289.472c16.914,1.155,63.348,3.867,105.071,25.512,57.726,29.946,82.4,66.035,82.4,66.035" transform="matrix(0.999, 0.035, -0.035, 0.999, 110.222, 1123.271)" fill="none"/><path d="M951.429,381.019c-16.914-1.155-63.348-3.867-105.071-25.512-57.726-29.946-82.4-66.035-82.4-66.035" transform="translate(-91.279 1502.571) rotate(3)" fill="none"/><path d="M733.1,287.68c5.6-.02,7.053-.009,7.053-.009" transform="translate(88.299 1190.752) rotate(-3)" fill="none"/><path d="M733.1,287.68c5.6-.02,7.053-.009,7.053-.009" transform="translate(113.299 1684.752) rotate(-3)" fill="none"/><path d="M733.1,287.68c5.6-.02,7.053-.009,7.053-.009" transform="translate(119.412 1762.581) rotate(-9)" fill="none"/><path d="M733.1,287.68c5.6-.02,7.053-.009,7.053-.009" transform="matrix(0.985, -0.174, 0.174, 0.985, 142.582, 1771.09)" fill="none"/><path d="M733.1,287.68c5.6-.02,7.053-.009,7.053-.009" transform="translate(156.587 1844.992) rotate(-16)" fill="none"/><path d="M733.1,287.68c5.6-.02,7.053-.009,7.053-.009" transform="translate(179.785 1958.071) rotate(-25)" fill="none"/><path d="M733.1,287.68c5.6-.02,7.053-.009,7.053-.009" transform="translate(45.777 1247.722) rotate(-7)" fill="none"/><path d="M733.1,287.68c5.6-.02,7.053-.009,7.053-.009" transform="translate(7.988 1307.646) rotate(-11)" fill="none"/><path d="M733.1,287.68c5.6-.02,7.053-.009,7.053-.009" transform="translate(-28.498 1412.516) rotate(-18)" fill="none"/><path d="M733.1,287.68c5.6-.02,7.053-.009,7.053-.009" transform="translate(-52.215 1519.071) rotate(-25)" fill="none"/></g></svg>